<svg
    xmlns="http://www.w3.org/2000/svg"
    viewBox="0 0 1128 552">
    <defs>
        <svg id="quit" width="22" height="22" viewBox="0 0 22 22" fill="none" xmlns="http://www.w3.org/2000/svg">
            <path d="M19.2987 11.4733L19.9563 11.9994C20.2023 11.6918 20.2023 11.2548 19.9563 10.9473L19.2987 11.4733ZM11.4038 10.6312C10.9387 10.6312 10.5617 11.0082 10.5617 11.4733C10.5617 11.9384 10.9387 12.3154 11.4038 12.3154L11.4038 10.6312ZM16.4474 16.3854L19.9563 11.9994L18.6411 10.9473L15.1323 15.3333L16.4474 16.3854ZM19.9563 10.9473L16.4475 6.5612L15.1323 7.61334L18.6411 11.9994L19.9563 10.9473ZM19.2987 10.6312L11.4038 10.6312L11.4038 12.3154L19.2987 12.3154L19.2987 10.6312Z" fill="#565A5C"/>
            <path d="M12.281 14.8661L12.281 15.6372C12.281 17 12.281 17.6814 11.8819 18.1526C11.4827 18.6237 10.8106 18.7358 9.46629 18.9598L7.63787 19.2646C4.90679 19.7197 3.54125 19.9473 2.64786 19.1905C1.75447 18.4337 1.75447 17.0493 1.75447 14.2806L1.75447 8.66545C1.75447 5.8967 1.75447 4.51232 2.64786 3.75551C3.54125 2.9987 4.90679 3.22629 7.63787 3.68147L9.46629 3.9862C10.8106 4.21025 11.4827 4.32228 11.8819 4.79344C12.281 5.2646 12.281 5.94602 12.281 7.30886L12.281 7.9063" stroke="#565A5C" stroke-width="1.68424" stroke-linecap="round"/>
        </svg>

        <svg id="bell" width="22" height="24" viewBox="0 0 22 24" fill="none" xmlns="http://www.w3.org/2000/svg">
            <path fill-rule="evenodd" clip-rule="evenodd" d="M14.8019 20.5128C14.6922 22.4566 13.0319 24 11 24C8.96805 24 7.30785 22.4566 7.19808 20.5128H2.54265C1.13847 20.5128 0 19.4113 0 18.0513C0 16.6931 1.13751 15.5897 2.53934 15.5897C2.5377 15.5897 2.53846 10.6664 2.53846 10.6664C2.53846 7.1986 4.77478 4.15824 8.03846 2.97796V2.86985C8.03846 1.28535 9.36627 0 11 0C12.6355 0 13.9615 1.28458 13.9615 2.86985V2.97803C17.2251 4.15846 19.4615 7.19933 19.4615 10.6664V15.589C20.8604 15.5897 22 16.6926 22 18.0513C22 19.4099 20.8606 20.5128 19.4574 20.5128H14.8019ZM8.89506 20.5128C9.00119 21.5494 9.9031 22.359 11 22.359C12.0969 22.359 12.9988 21.5494 13.1049 20.5128H8.89506ZM4.23077 10.6664C4.23077 7.72195 6.24622 5.16243 9.11911 4.35891L9.73077 4.18784V2.86985C9.73077 2.1923 10.3003 1.64103 11 1.64103C11.7012 1.64103 12.2692 2.19126 12.2692 2.86985V4.18785L12.8809 4.35894C15.7536 5.16255 17.7692 7.72267 17.7692 10.6664V15.589C17.7692 16.4977 18.5256 17.2308 19.4607 17.2308C19.9265 17.2308 20.3077 17.5997 20.3077 18.0513C20.3077 18.5029 19.9266 18.8718 19.4574 18.8718H2.54265C2.07225 18.8718 1.69231 18.5042 1.69231 18.0513C1.69231 17.5993 2.07224 17.2308 2.53934 17.2308C3.47257 17.2308 4.23077 16.4951 4.23077 15.589V10.6664Z" fill="#565A5C"/>
        </svg>

        <svg id="bell_alert" width="22" height="24" viewBox="0 0 22 24" fill="none" xmlns="http://www.w3.org/2000/svg">
            <path fill-rule="evenodd" clip-rule="evenodd" d="M14.8019 20.5128C14.6922 22.4566 13.0319 24 11 24C8.96805 24 7.30785 22.4566 7.19808 20.5128H2.54265C1.13847 20.5128 0 19.4113 0 18.0513C0 16.6931 1.13751 15.5897 2.53934 15.5897C2.5377 15.5897 2.53846 10.6664 2.53846 10.6664C2.53846 7.1986 4.77478 4.15824 8.03846 2.97796V2.86985C8.03846 1.28535 9.36627 0 11 0C12.6355 0 13.9615 1.28458 13.9615 2.86985V2.97803C17.2251 4.15846 19.4615 7.19933 19.4615 10.6664V15.589C20.8604 15.5897 22 16.6926 22 18.0513C22 19.4099 20.8606 20.5128 19.4574 20.5128H14.8019ZM8.89506 20.5128C9.00119 21.5494 9.9031 22.359 11 22.359C12.0969 22.359 12.9988 21.5494 13.1049 20.5128H8.89506ZM4.23077 10.6664C4.23077 7.72195 6.24622 5.16243 9.11911 4.35891L9.73077 4.18784V2.86985C9.73077 2.1923 10.3003 1.64103 11 1.64103C11.7012 1.64103 12.2692 2.19126 12.2692 2.86985V4.18785L12.8809 4.35894C15.7536 5.16255 17.7692 7.72267 17.7692 10.6664V15.589C17.7692 16.4977 18.5256 17.2308 19.4607 17.2308C19.9265 17.2308 20.3077 17.5997 20.3077 18.0513C20.3077 18.5029 19.9266 18.8718 19.4574 18.8718H2.54265C2.07225 18.8718 1.69231 18.5042 1.69231 18.0513C1.69231 17.5993 2.07224 17.2308 2.53934 17.2308C3.47257 17.2308 4.23077 16.4951 4.23077 15.589V10.6664Z" fill="#565A5C"/>
            <circle cx="17.2958" cy="5.46222" r="3.12921" fill="#CD202C" stroke="white" stroke-width="1.08333"/>
        </svg>
        <svg id="folder-open" version="1.1" xmlns="http://www.w3.org/2000/svg" xmlns:xlink="http://www.w3.org/1999/xlink" x="0px" y="0px"
                viewBox="0 0 2200 2200" style="enable-background:new 0 0 2200 2200;" xml:space="preserve" width="48px" height="48px">
            <g id="Objects">
                <g>
                    <path style="fill:#EDAF00;" d="M205.898,1698.159c-2.714-7.933-4.194-16.437-4.194-25.292V472.901
                        c0-43.027,34.873-77.901,77.901-77.901h525.452c25.499,0,50.116,9.387,69.15,26.356l141.766,126.485
                        c19.034,16.969,43.637,26.356,69.15,26.356h591.503c43.027,0,77.901,34.873,77.901,77.901v101.569L205.898,1698.159z"/>
                    <path style="fill:#E8E8E8;" d="M333,1275V703.023c0-17.255,13.985-31.241,31.241-31.241h1246.04
                        c17.255,0,31.241,13.985,31.241,31.241v493.047L333,1275z"/>
                    <path style="fill:#FFFFFF;" d="M361,1311V739.023c0-17.255,13.985-31.241,31.241-31.241h1246.04
                        c17.255,0,31.241,13.985,31.241,31.241v493.047L361,1311z"/>
                    <path style="fill:#FFCE00;" d="M1995.405,852.428l-248.311,893.404c-9.719,34.969-41.561,59.168-77.856,59.168H282.56
                        c-53.33,0-92.034-50.749-77.929-102.179l207.051-754.959c9.28-33.839,40.038-57.297,75.126-57.297h665.039
                        c18.541,0,36.744-4.963,52.719-14.374l183.59-108.15c15.975-9.411,34.178-14.374,52.719-14.374h479.475
                        C1971.872,753.667,2009.202,802.788,1995.405,852.428z"/>
                </g>
            </g>
        </svg>
        <svg id="folder-close" xmlns="http://www.w3.org/2000/svg"  viewBox="0 0 48 48" width="48px" height="48px"><path fill="#FFA000" d="M40,12H22l-4-4H8c-2.2,0-4,1.8-4,4v8h40v-4C44,13.8,42.2,12,40,12z"/><path fill="#FFCA28" d="M40,12H8c-2.2,0-4,1.8-4,4v20c0,2.2,1.8,4,4,4h32c2.2,0,4-1.8,4-4V16C44,13.8,42.2,12,40,12z"/>
        </svg>
        <svg id="file-document" xmlns="http://www.w3.org/2000/svg"  viewBox="0 0 50 50" width="50px" height="50px">
            <path d="M 7 2 L 7 48 L 43 48 L 43 14.59375 L 42.71875 14.28125 L 30.71875 2.28125 L 30.40625 2 Z M 9 4 L 29 4 L 29 16 L 41 16 L 41 46 L 9 46 Z M 31 5.4375 L 39.5625 14 L 31 14 Z M 15 22 L 15 24 L 35 24 L 35 22 Z M 15 28 L 15 30 L 31 30 L 31 28 Z M 15 34 L 15 36 L 35 36 L 35 34 Z" stroke="#000000" stroke-width="0.8"/>
        </svg>




    </defs>
</svg>
