<svg
    xmlns="http://www.w3.org/2000/svg"
    viewBox="0 0 1128 552">
    <defs>
        <svg id="quit" width="22" height="22" viewBox="0 0 22 22" fill="none" xmlns="http://www.w3.org/2000/svg">
            <path d="M19.2987 11.4733L19.9563 11.9994C20.2023 11.6918 20.2023 11.2548 19.9563 10.9473L19.2987 11.4733ZM11.4038 10.6312C10.9387 10.6312 10.5617 11.0082 10.5617 11.4733C10.5617 11.9384 10.9387 12.3154 11.4038 12.3154L11.4038 10.6312ZM16.4474 16.3854L19.9563 11.9994L18.6411 10.9473L15.1323 15.3333L16.4474 16.3854ZM19.9563 10.9473L16.4475 6.5612L15.1323 7.61334L18.6411 11.9994L19.9563 10.9473ZM19.2987 10.6312L11.4038 10.6312L11.4038 12.3154L19.2987 12.3154L19.2987 10.6312Z" fill="#565A5C"/>
            <path d="M12.281 14.8661L12.281 15.6372C12.281 17 12.281 17.6814 11.8819 18.1526C11.4827 18.6237 10.8106 18.7358 9.46629 18.9598L7.63787 19.2646C4.90679 19.7197 3.54125 19.9473 2.64786 19.1905C1.75447 18.4337 1.75447 17.0493 1.75447 14.2806L1.75447 8.66545C1.75447 5.8967 1.75447 4.51232 2.64786 3.75551C3.54125 2.9987 4.90679 3.22629 7.63787 3.68147L9.46629 3.9862C10.8106 4.21025 11.4827 4.32228 11.8819 4.79344C12.281 5.2646 12.281 5.94602 12.281 7.30886L12.281 7.9063" stroke="#565A5C" stroke-width="1.68424" stroke-linecap="round"/>
        </svg>

        <svg id="bell" width="22" height="24" viewBox="0 0 22 24" fill="none" xmlns="http://www.w3.org/2000/svg">
            <path fill-rule="evenodd" clip-rule="evenodd" d="M14.8019 20.5128C14.6922 22.4566 13.0319 24 11 24C8.96805 24 7.30785 22.4566 7.19808 20.5128H2.54265C1.13847 20.5128 0 19.4113 0 18.0513C0 16.6931 1.13751 15.5897 2.53934 15.5897C2.5377 15.5897 2.53846 10.6664 2.53846 10.6664C2.53846 7.1986 4.77478 4.15824 8.03846 2.97796V2.86985C8.03846 1.28535 9.36627 0 11 0C12.6355 0 13.9615 1.28458 13.9615 2.86985V2.97803C17.2251 4.15846 19.4615 7.19933 19.4615 10.6664V15.589C20.8604 15.5897 22 16.6926 22 18.0513C22 19.4099 20.8606 20.5128 19.4574 20.5128H14.8019ZM8.89506 20.5128C9.00119 21.5494 9.9031 22.359 11 22.359C12.0969 22.359 12.9988 21.5494 13.1049 20.5128H8.89506ZM4.23077 10.6664C4.23077 7.72195 6.24622 5.16243 9.11911 4.35891L9.73077 4.18784V2.86985C9.73077 2.1923 10.3003 1.64103 11 1.64103C11.7012 1.64103 12.2692 2.19126 12.2692 2.86985V4.18785L12.8809 4.35894C15.7536 5.16255 17.7692 7.72267 17.7692 10.6664V15.589C17.7692 16.4977 18.5256 17.2308 19.4607 17.2308C19.9265 17.2308 20.3077 17.5997 20.3077 18.0513C20.3077 18.5029 19.9266 18.8718 19.4574 18.8718H2.54265C2.07225 18.8718 1.69231 18.5042 1.69231 18.0513C1.69231 17.5993 2.07224 17.2308 2.53934 17.2308C3.47257 17.2308 4.23077 16.4951 4.23077 15.589V10.6664Z" fill="#565A5C"/>
        </svg>

        <svg id="bell_alert" width="22" height="24" viewBox="0 0 22 24" fill="none" xmlns="http://www.w3.org/2000/svg">
            <path fill-rule="evenodd" clip-rule="evenodd" d="M14.8019 20.5128C14.6922 22.4566 13.0319 24 11 24C8.96805 24 7.30785 22.4566 7.19808 20.5128H2.54265C1.13847 20.5128 0 19.4113 0 18.0513C0 16.6931 1.13751 15.5897 2.53934 15.5897C2.5377 15.5897 2.53846 10.6664 2.53846 10.6664C2.53846 7.1986 4.77478 4.15824 8.03846 2.97796V2.86985C8.03846 1.28535 9.36627 0 11 0C12.6355 0 13.9615 1.28458 13.9615 2.86985V2.97803C17.2251 4.15846 19.4615 7.19933 19.4615 10.6664V15.589C20.8604 15.5897 22 16.6926 22 18.0513C22 19.4099 20.8606 20.5128 19.4574 20.5128H14.8019ZM8.89506 20.5128C9.00119 21.5494 9.9031 22.359 11 22.359C12.0969 22.359 12.9988 21.5494 13.1049 20.5128H8.89506ZM4.23077 10.6664C4.23077 7.72195 6.24622 5.16243 9.11911 4.35891L9.73077 4.18784V2.86985C9.73077 2.1923 10.3003 1.64103 11 1.64103C11.7012 1.64103 12.2692 2.19126 12.2692 2.86985V4.18785L12.8809 4.35894C15.7536 5.16255 17.7692 7.72267 17.7692 10.6664V15.589C17.7692 16.4977 18.5256 17.2308 19.4607 17.2308C19.9265 17.2308 20.3077 17.5997 20.3077 18.0513C20.3077 18.5029 19.9266 18.8718 19.4574 18.8718H2.54265C2.07225 18.8718 1.69231 18.5042 1.69231 18.0513C1.69231 17.5993 2.07224 17.2308 2.53934 17.2308C3.47257 17.2308 4.23077 16.4951 4.23077 15.589V10.6664Z" fill="#565A5C"/>
            <circle cx="17.2958" cy="5.46222" r="3.12921" fill="#CD202C" stroke="white" stroke-width="1.08333"/>
        </svg>
        <svg id="folder_open" xmlns="http://www.w3.org/2000/svg" xmlns:xlink="http://www.w3.org/1999/xlink" version="1.1" width="256" height="256" viewBox="0 0 256 256" xml:space="preserve">
                <g style="stroke: none; stroke-width: 0; stroke-dasharray: none; stroke-linecap: butt; stroke-linejoin: miter; stroke-miterlimit: 10; fill: none; fill-rule: nonzero; opacity: 1;" transform="translate(1.4065934065934016 1.4065934065934016) scale(2.81 2.81)">
	            <path d="M 0.625 76.898 C 0.232 76.35 0 75.678 0 74.952 v -7.077 v 0 V 22.622 c 0 -1.605 1.301 -2.907 2.907 -2.907 h 2.195 c 2.212 0 4.005 -1.793 4.005 -4.005 v 0 c 0 -2.212 1.793 -4.005 4.005 -4.005 h 22.78 c 1.494 0 2.864 0.831 3.553 2.157 l 1.924 3.698 c 0.69 1.325 2.059 2.157 3.553 2.157 h 26.374 c 1.605 0 2.907 1.301 2.907 2.907 v 16.644 L 0.625 76.898 z" style="stroke: none; stroke-width: 1; stroke-dasharray: none; stroke-linecap: butt; stroke-linejoin: miter; stroke-miterlimit: 10; fill: rgb(232,161,19); fill-rule: nonzero; opacity: 1;" transform=" matrix(1 0 0 1 0 0) " stroke-linecap="round"/>
	            <path d="M 63.873 35.394 v -6.925 c 0 -2.116 -1.715 -3.831 -3.831 -3.831 H 11.11 c -2.116 0 -3.831 1.715 -3.831 3.831 v 36.624 L 63.873 35.394 z" style="stroke: none; stroke-width: 1; stroke-dasharray: none; stroke-linecap: butt; stroke-linejoin: miter; stroke-miterlimit: 10; fill: rgb(255,242,202); fill-rule: nonzero; opacity: 1;" transform=" matrix(1 0 0 1 0 0) " stroke-linecap="round"/>
	            <path d="M 67.873 39.394 v -6.925 c 0 -2.116 -1.715 -3.831 -3.831 -3.831 H 15.11 c -2.116 0 -3.831 1.715 -3.831 3.831 v 26.624 L 67.873 39.394 z" style="stroke: none; stroke-width: 1; stroke-dasharray: none; stroke-linecap: butt; stroke-linejoin: miter; stroke-miterlimit: 10; fill: rgb(255,254,248); fill-rule: nonzero; opacity: 1;" transform=" matrix(1 0 0 1 0 0) " stroke-linecap="round"/>
	            <path d="M 16.438 41.635 c 0.646 -1.441 2.079 -2.369 3.658 -2.369 H 86.86 c 2.274 0 3.792 2.344 2.862 4.419 l -14.23 31.735 c -0.784 1.749 -2.522 2.875 -4.439 2.875 H 10.421 H 3.344 c -1.121 0 -2.112 -0.551 -2.719 -1.397 l 0.003 -0.002 L 8.75 58.781 L 16.438 41.635" style="stroke: none; stroke-width: 1; stroke-dasharray: none; stroke-linecap: butt; stroke-linejoin: miter; stroke-miterlimit: 10; fill: rgb(255,196,49); fill-rule: nonzero; opacity: 1;" transform=" matrix(1 0 0 1 0 0) " stroke-linecap="round"/>
            </g>
        </svg>
        <svg id="folder_close" xmlns="http://www.w3.org/2000/svg" xmlns:xlink="http://www.w3.org/1999/xlink" version="1.1" width="256" height="256" viewBox="0 0 256 256" xml:space="preserve">
            <g style="stroke: none; stroke-width: 0; stroke-dasharray: none; stroke-linecap: butt; stroke-linejoin: miter; stroke-miterlimit: 10; fill: none; fill-rule: nonzero; opacity: 1;" transform="translate(1.4065934065934016 1.4065934065934016) scale(2.81 2.81)">
            	<path d="M 0 68.798 v 11.914 c 0 1.713 1.401 3.114 3.114 3.114 h 0 c 3.344 0 4.805 -2.642 4.805 -2.642 L 8.14 29.281 l 2.739 -2.827 l 72.894 -2.977 v -1.482 c 0 -2.396 -1.942 -4.338 -4.338 -4.338 H 50.236 c -1.15 0 -2.254 -0.457 -3.067 -1.27 l -8.943 -8.943 c -0.813 -0.813 -1.917 -1.27 -3.067 -1.27 H 4.338 C 1.942 6.174 0 8.116 0 10.512 v 7.146 v 2.332 V 68.798" style="stroke: none; stroke-width: 1; stroke-dasharray: none; stroke-linecap: butt; stroke-linejoin: miter; stroke-miterlimit: 10; fill: rgb(224,173,49); fill-rule: nonzero; opacity: 1;" transform=" matrix(1 0 0 1 0 0) " stroke-linecap="round"/>
            	<path d="M 3.114 83.826 L 3.114 83.826 c 1.713 0 3.114 -1.401 3.114 -3.114 V 27.81 c 0 -2.393 1.94 -4.333 4.333 -4.333 h 75.107 c 2.393 0 4.333 1.94 4.333 4.333 v 51.684 c 0 2.393 -1.94 4.333 -4.333 4.333 C 85.667 83.826 3.114 83.826 3.114 83.826 z" style="stroke: none; stroke-width: 1; stroke-dasharray: none; stroke-linecap: butt; stroke-linejoin: miter; stroke-miterlimit: 10; fill: rgb(255,200,67); fill-rule: nonzero; opacity: 1;" transform=" matrix(1 0 0 1 0 0) " stroke-linecap="round"/>
            </g>
        </svg>
        <svg id="file-document" xmlns="http://www.w3.org/2000/svg" xmlns:xlink="http://www.w3.org/1999/xlink" version="1.1" width="256" height="256" viewBox="0 0 256 256" xml:space="preserve">
            <g style="stroke: none; stroke-width: 0; stroke-dasharray: none; stroke-linecap: butt; stroke-linejoin: miter; stroke-miterlimit: 10; fill: none; fill-rule: nonzero; opacity: 1;" transform="translate(1.4065934065934016 1.4065934065934016) scale(2.81 2.81)">
            	<path d="M 77.474 17.28 L 61.526 1.332 C 60.668 0.473 59.525 0 58.311 0 H 15.742 c -2.508 0 -4.548 2.04 -4.548 4.548 v 80.904 c 0 2.508 2.04 4.548 4.548 4.548 h 58.516 c 2.508 0 4.549 -2.04 4.549 -4.548 V 20.496 C 78.807 19.281 78.333 18.138 77.474 17.28 z M 61.073 5.121 l 12.611 12.612 H 62.35 c -0.704 0 -1.276 -0.573 -1.276 -1.277 V 5.121 z M 74.258 87 H 15.742 c -0.854 0 -1.548 -0.694 -1.548 -1.548 V 4.548 C 14.194 3.694 14.888 3 15.742 3 h 42.332 v 13.456 c 0 2.358 1.918 4.277 4.276 4.277 h 13.457 v 64.719 C 75.807 86.306 75.112 87 74.258 87 z" style="stroke: none; stroke-width: 1; stroke-dasharray: none; stroke-linecap: butt; stroke-linejoin: miter; stroke-miterlimit: 10; fill: rgb(0,0,0); fill-rule: nonzero; opacity: 1;" transform=" matrix(1 0 0 1 0 0) " stroke-linecap="round"/>
            	<path d="M 68.193 33.319 H 41.808 c -0.829 0 -1.5 -0.671 -1.5 -1.5 s 0.671 -1.5 1.5 -1.5 h 26.385 c 0.828 0 1.5 0.671 1.5 1.5 S 69.021 33.319 68.193 33.319 z" style="stroke: none; stroke-width: 1; stroke-dasharray: none; stroke-linecap: butt; stroke-linejoin: miter; stroke-miterlimit: 10; fill: rgb(0,0,0); fill-rule: nonzero; opacity: 1;" transform=" matrix(1 0 0 1 0 0) " stroke-linecap="round"/>
            	<path d="M 34.456 33.319 H 21.807 c -0.829 0 -1.5 -0.671 -1.5 -1.5 s 0.671 -1.5 1.5 -1.5 h 12.649 c 0.829 0 1.5 0.671 1.5 1.5 S 35.285 33.319 34.456 33.319 z" style="stroke: none; stroke-width: 1; stroke-dasharray: none; stroke-linecap: butt; stroke-linejoin: miter; stroke-miterlimit: 10; fill: rgb(0,0,0); fill-rule: nonzero; opacity: 1;" transform=" matrix(1 0 0 1 0 0) " stroke-linecap="round"/>
            	<linearGradient id="SVGID_1" gradientUnits="userSpaceOnUse" x1="21.8064" y1="19.2332" x2="42.2984" y2="19.2332">
            <stop offset="0%" style="stop-color:rgb(255,255,255);stop-opacity: 1"/>
            <stop offset="100%" style="stop-color:rgb(0,0,0);stop-opacity: 1"/>
            </linearGradient>
            <line x1="-10.246" y1="0" x2="10.246" y2="0" style="stroke: none; stroke-width: 1; stroke-dasharray: none; stroke-linecap: butt; stroke-linejoin: miter; stroke-miterlimit: 10; fill: url(#SVGID_1); fill-rule: nonzero; opacity: 1;" transform=" matrix(1 0 0 1 0 0) "/>
            	<path d="M 42.298 20.733 H 21.807 c -0.829 0 -1.5 -0.671 -1.5 -1.5 s 0.671 -1.5 1.5 -1.5 h 20.492 c 0.829 0 1.5 0.671 1.5 1.5 S 43.127 20.733 42.298 20.733 z" style="stroke: none; stroke-width: 1; stroke-dasharray: none; stroke-linecap: butt; stroke-linejoin: miter; stroke-miterlimit: 10; fill: rgb(0,0,0); fill-rule: nonzero; opacity: 1;" transform=" matrix(1 0 0 1 0 0) " stroke-linecap="round"/>
            	<path d="M 68.193 44.319 H 21.807 c -0.829 0 -1.5 -0.671 -1.5 -1.5 s 0.671 -1.5 1.5 -1.5 h 46.387 c 0.828 0 1.5 0.671 1.5 1.5 S 69.021 44.319 68.193 44.319 z" style="stroke: none; stroke-width: 1; stroke-dasharray: none; stroke-linecap: butt; stroke-linejoin: miter; stroke-miterlimit: 10; fill: rgb(0,0,0); fill-rule: nonzero; opacity: 1;" transform=" matrix(1 0 0 1 0 0) " stroke-linecap="round"/>
            	<path d="M 48.191 55.319 H 21.807 c -0.829 0 -1.5 -0.672 -1.5 -1.5 s 0.671 -1.5 1.5 -1.5 h 26.385 c 0.828 0 1.5 0.672 1.5 1.5 S 49.02 55.319 48.191 55.319 z" style="stroke: none; stroke-width: 1; stroke-dasharray: none; stroke-linecap: butt; stroke-linejoin: miter; stroke-miterlimit: 10; fill: rgb(0,0,0); fill-rule: nonzero; opacity: 1;" transform=" matrix(1 0 0 1 0 0) " stroke-linecap="round"/>
            	<path d="M 68.193 55.319 H 55.544 c -0.828 0 -1.5 -0.672 -1.5 -1.5 s 0.672 -1.5 1.5 -1.5 h 12.649 c 0.828 0 1.5 0.672 1.5 1.5 S 69.021 55.319 68.193 55.319 z" style="stroke: none; stroke-width: 1; stroke-dasharray: none; stroke-linecap: butt; stroke-linejoin: miter; stroke-miterlimit: 10; fill: rgb(0,0,0); fill-rule: nonzero; opacity: 1;" transform=" matrix(1 0 0 1 0 0) " stroke-linecap="round"/>
            	<path d="M 68.193 66.319 H 21.807 c -0.829 0 -1.5 -0.672 -1.5 -1.5 s 0.671 -1.5 1.5 -1.5 h 46.387 c 0.828 0 1.5 0.672 1.5 1.5 S 69.021 66.319 68.193 66.319 z" style="stroke: none; stroke-width: 1; stroke-dasharray: none; stroke-linecap: butt; stroke-linejoin: miter; stroke-miterlimit: 10; fill: rgb(0,0,0); fill-rule: nonzero; opacity: 1;" transform=" matrix(1 0 0 1 0 0) " stroke-linecap="round"/>
            	<path d="M 68.193 77.319 H 55.544 c -0.828 0 -1.5 -0.672 -1.5 -1.5 s 0.672 -1.5 1.5 -1.5 h 12.649 c 0.828 0 1.5 0.672 1.5 1.5 S 69.021 77.319 68.193 77.319 z" style="stroke: none; stroke-width: 1; stroke-dasharray: none; stroke-linecap: butt; stroke-linejoin: miter; stroke-miterlimit: 10; fill: rgb(0,0,0); fill-rule: nonzero; opacity: 1;" transform=" matrix(1 0 0 1 0 0) " stroke-linecap="round"/>
            </g>
        </svg>




    </defs>
</svg>
