<svg width="230" height="42" viewBox="0 0 230 42" fill="none" xmlns="http://www.w3.org/2000/svg">
<g clip-path="url(#clip0_2406_1443)">
<path d="M66.1177 15.5176H86.8307V22.6347H74.3786V25.7809H85.95V32.2565H74.3786V40.3816H66.1177V15.5176Z" fill="#CD202C"/>
<path d="M109.427 28.0097V27.9486C109.427 24.9857 107.422 22.3283 104.233 22.3283C101.044 22.3283 99.1007 24.9552 99.1007 27.857V27.9181C99.1007 30.881 101.105 33.5384 104.294 33.5384C107.483 33.5384 109.427 30.9115 109.427 28.0097ZM90.7791 28.0097V27.9486C90.7791 20.7399 96.671 14.9668 104.325 14.9668C111.978 14.9668 117.779 20.6483 117.779 27.857V27.9181C117.779 35.1268 111.887 40.8999 104.233 40.8999C96.5799 40.8999 90.7791 35.2184 90.7791 28.0097Z" fill="#CD202C"/>
<path d="M122.578 15.5176H130.322L139.13 26.4834V15.5176H147.33V40.3816H139.98L130.778 28.8965V40.3816H122.578V15.5176Z" fill="#CD202C"/>
<path d="M167.618 31.1565L165.37 25.1085L163.123 31.1565H167.648H167.618ZM161.331 15.334H169.531L179.949 40.3813H170.989L169.683 37.0518H161.027L159.752 40.3813H150.914L161.331 15.334Z" fill="#CD202C"/>
<path d="M183.532 15.5176H204.245V22.6347H191.793V25.7809H203.365V32.2565H191.793V40.3816H183.532V15.5176Z" fill="#CD202C"/>
<path d="M208.74 15.5176H229.818V22.3292H216.88V24.8645H228.937V30.8514H216.88V33.5699H230V40.3816H208.74V15.5176Z" fill="#CD202C"/>
<path d="M69.3979 10.4162C67.606 10.4162 66.3 9.04163 66.3 7.26999C66.3 5.5289 67.606 4.09326 69.4586 4.09326C70.6127 4.09326 71.2809 4.49035 71.858 5.04017L71.0076 6.01763C70.552 5.58999 70.0661 5.31508 69.4586 5.31508C68.426 5.31508 67.6971 6.17035 67.6971 7.2089C67.6971 8.27799 68.426 9.13326 69.4586 9.13326C70.1572 9.13326 70.5824 8.85835 71.0683 8.43072L71.9187 9.28599C71.2809 9.95799 70.6127 10.3856 69.4283 10.3856" fill="#565A5C"/>
<path d="M87.2257 7.26999C87.2257 6.23144 86.4664 5.34563 85.373 5.34563C84.2797 5.34563 83.5508 6.2009 83.5508 7.23944C83.5508 8.30853 84.3101 9.16381 85.4034 9.16381C86.4968 9.16381 87.2257 8.30854 87.2257 7.26999ZM85.4034 10.4162C83.5204 10.4162 82.1841 9.01108 82.1841 7.26999C82.1841 5.5289 83.5508 4.09326 85.4338 4.09326C87.3168 4.09326 88.6531 5.49835 88.6531 7.23944C88.6531 8.98053 87.2864 10.4162 85.4034 10.4162Z" fill="#565A5C"/>
<path d="M103.019 6.29242C103.019 5.71206 102.624 5.4066 101.956 5.4066H100.619V7.1477H101.986C102.624 7.1477 103.019 6.8117 103.019 6.29242ZM102.988 10.3244L101.682 8.36951H100.619V10.3244H99.283V4.21533H102.047C103.474 4.21533 104.325 4.97897 104.325 6.23133C104.325 7.23933 103.808 7.85024 103.019 8.1557L104.507 10.3244H102.958H102.988Z" fill="#565A5C"/>
<path d="M118.508 6.35351C118.508 5.7426 118.083 5.43715 117.414 5.43715H116.382V7.30042H117.445C118.113 7.30042 118.508 6.90333 118.508 6.38406V6.35351ZM117.414 8.4917H116.412V10.3244H115.076V4.21533H117.566C119.024 4.21533 119.905 5.0706 119.905 6.32297C119.905 7.7586 118.812 8.4917 117.445 8.4917H117.414Z" fill="#565A5C"/>
<path d="M135.121 7.26999C135.121 6.23144 134.361 5.34563 133.268 5.34563C132.175 5.34563 131.446 6.2009 131.446 7.23944C131.446 8.30853 132.205 9.16381 133.298 9.16381C134.392 9.16381 135.121 8.30854 135.121 7.26999ZM133.298 10.4162C131.415 10.4162 130.079 9.01108 130.079 7.26999C130.079 5.5289 131.446 4.09326 133.298 4.09326C135.151 4.09326 136.518 5.49835 136.518 7.23944C136.518 8.98053 135.151 10.4162 133.268 10.4162H133.298Z" fill="#565A5C"/>
<path d="M150.914 6.29242C150.914 5.71206 150.519 5.4066 149.851 5.4066H148.515V7.1477H149.881C150.519 7.1477 150.914 6.8117 150.914 6.29242ZM150.883 10.3244L149.578 8.36951H148.515V10.3244H147.178V4.21533H149.942C151.369 4.21533 152.22 4.97897 152.22 6.23133C152.22 7.23933 151.704 7.85024 150.914 8.1557L152.402 10.3244H150.853H150.883Z" fill="#565A5C"/>
<path d="M165.644 5.80348L164.824 7.78893H166.433L165.613 5.80348H165.644ZM167.466 10.3242L166.919 8.94966H164.338L163.791 10.3242H162.424L165.036 4.18457H166.281L168.893 10.3242H167.496H167.466Z" fill="#565A5C"/>
<path d="M182.135 10.4162C180.343 10.4162 179.007 9.04163 179.007 7.26999C179.007 5.5289 180.313 4.09326 182.166 4.09326C183.32 4.09326 183.988 4.49035 184.565 5.04017L183.715 6.01763C183.259 5.58999 182.773 5.31508 182.166 5.31508C181.133 5.31508 180.404 6.17035 180.404 7.2089C180.404 8.27799 181.133 9.13326 182.166 9.13326C182.864 9.13326 183.289 8.85835 183.775 8.43072L184.626 9.28599C183.988 9.95799 183.32 10.3856 182.135 10.3856" fill="#565A5C"/>
<path d="M196.561 4.21533H195.225V10.3244H196.561V4.21533Z" fill="#565A5C"/>
<path d="M210.046 3.72676L211.018 2.16895L212.142 2.65767L211.018 3.69622H210.016L210.046 3.72676ZM212.354 7.27004C212.354 6.23149 211.595 5.34567 210.502 5.34567C209.408 5.34567 208.68 6.20094 208.68 7.23949C208.68 8.30858 209.439 9.16385 210.532 9.16385C211.626 9.16385 212.354 8.30858 212.354 7.27004ZM210.502 10.4162C208.619 10.4162 207.282 9.01113 207.282 7.27004C207.282 5.52895 208.649 4.09331 210.532 4.09331C212.415 4.09331 213.751 5.4984 213.751 7.23949C213.751 8.98058 212.385 10.4162 210.502 10.4162Z" fill="#565A5C"/>
<path d="M228.694 10.3244L225.748 6.44515V10.3244H224.412V4.21533H225.657L228.512 7.97242V4.21533H229.818V10.3244H228.694Z" fill="#565A5C"/>
<path fill-rule="evenodd" clip-rule="evenodd" d="M47.4092 24.8335L28.5488 2.19927C27.3339 0.763636 25.5421 0 23.7198 0H23.659C21.8368 0 20.0449 0.763636 18.8301 2.19927L0 24.8335L5.64902 30.6065L17.8885 19.1825C21.9279 15.4255 25.5117 15.4255 29.551 19.1825L41.7906 30.6065L47.4396 24.8335H47.4092Z" fill="#CD202C"/>
<path fill-rule="evenodd" clip-rule="evenodd" d="M36.172 36.3184C28.9741 29.0791 26.3622 25.4136 23.7503 25.3525C23.7503 25.3525 23.7199 25.3525 23.6895 25.3525C23.6895 25.3525 23.6592 25.3525 23.6288 25.3525C21.0473 25.4442 18.405 29.1096 11.207 36.3184L16.7953 42.0304L22.748 37.3874C23.0214 37.1736 23.2947 37.082 23.5984 37.0514C23.5984 37.0514 23.6592 37.0514 23.6895 37.0514C23.6895 37.0514 23.6895 37.0514 23.7199 37.0514C23.7199 37.0514 23.7199 37.0514 23.7503 37.0514C24.054 37.0514 24.3273 37.1736 24.6007 37.3874L30.5534 42.0304L36.1417 36.3184H36.172Z" fill="#565A5C"/>
</g>
<defs>
<clipPath id="clip0_2406_1443">
<rect width="230" height="42" fill="white"/>
</clipPath>
</defs>
</svg>
