<svg width="48" height="42" viewBox="0 0 48 42" fill="none" xmlns="http://www.w3.org/2000/svg">
<path fill-rule="evenodd" clip-rule="evenodd" d="M47.4092 24.8335L28.5488 2.19927C27.3339 0.763636 25.5421 0 23.7198 0H23.659C21.8368 0 20.0449 0.763636 18.8301 2.19927L0 24.8335L5.64902 30.6065L17.8885 19.1825C21.9279 15.4255 25.5117 15.4255 29.551 19.1825L41.7906 30.6065L47.4396 24.8335H47.4092Z" fill="#CD202C"/>
<path fill-rule="evenodd" clip-rule="evenodd" d="M36.172 36.3184C28.9741 29.0791 26.3622 25.4136 23.7503 25.3525C23.7503 25.3525 23.7199 25.3525 23.6895 25.3525C23.6895 25.3525 23.6592 25.3525 23.6288 25.3525C21.0473 25.4442 18.405 29.1096 11.207 36.3184L16.7953 42.0304L22.748 37.3874C23.0214 37.1736 23.2947 37.082 23.5984 37.0514C23.5984 37.0514 23.6592 37.0514 23.6895 37.0514C23.6895 37.0514 23.6895 37.0514 23.7199 37.0514C23.7199 37.0514 23.7199 37.0514 23.7503 37.0514C24.054 37.0514 24.3273 37.1736 24.6007 37.3874L30.5534 42.0304L36.1417 36.3184H36.172Z" fill="#565A5C"/>
</svg>
