<svg width="170" height="101" viewBox="0 0 170 101" fill="none" xmlns="http://www.w3.org/2000/svg">
<g clip-path="url(#clip0_2587_4530)">
<path d="M0.525581 49.9015L0.00146484 49.9629L0.932853 57.9384L1.45697 57.877L0.525581 49.9015Z" fill="#407BFF"/>
<path d="M1.79975 60.8439L1.27563 60.9053L1.74553 64.929L2.26965 64.8677L1.79975 60.8439Z" fill="#407BFF"/>
<path d="M36.602 33.6374L35.9812 31.8967C35.1017 29.4256 32.634 27.8922 30.0317 28.1978L5.308 31.0937C2.22464 31.4564 0.0155968 34.2539 0.377736 37.3415L7.41357 97.5913C7.6619 99.7101 9.57606 101.223 11.692 100.979L100.152 90.6183C102.268 90.3696 103.779 88.4528 103.536 86.3339L97.4516 34.2487C97.2033 32.1298 95.2891 30.6171 93.1732 30.8606L41.8064 36.8752C39.5301 37.1394 37.3728 35.7977 36.602 33.6374Z" fill="#1F487D"/>
<path d="M39.0777 7.43805L11.127 13.0156L18.8008 51.5778L46.7516 46.0002L39.0777 7.43805Z" fill="#407BFF"/>
<path opacity="0.7" d="M39.0777 7.43805L11.127 13.0156L18.8008 51.5778L46.7516 46.0002L39.0777 7.43805Z" fill="white"/>
<g opacity="0.4">
<path d="M35.3397 16.7173L18.1226 20.152C17.2897 20.3178 16.4775 19.7738 16.3119 18.9398C16.1464 18.1057 16.6896 17.2923 17.5225 17.1266L34.7396 13.6919C35.5725 13.5261 36.3848 14.07 36.5503 14.9041C36.7159 15.7382 36.1727 16.5515 35.3397 16.7173Z" fill="#407BFF"/>
<path d="M36.6124 23.0943L19.3953 26.529C18.5624 26.6947 17.7502 26.1508 17.5846 25.3167C17.4191 24.4826 17.9623 23.6693 18.7952 23.5035L36.0123 20.0688C36.8452 19.903 37.6575 20.447 37.823 21.2811C37.9886 22.1151 37.4454 22.9285 36.6124 23.0943Z" fill="#407BFF"/>
<path d="M37.8798 29.4663L20.6627 32.901C19.8297 33.0668 19.0175 32.5228 18.852 31.6888C18.6864 30.8547 19.2296 30.0414 20.0626 29.8756L37.2797 26.4409C38.1126 26.2751 38.9248 26.8191 39.0904 27.6531C39.2559 28.4872 38.7127 29.3005 37.8798 29.4663Z" fill="#407BFF"/>
<path d="M39.1474 35.8443L21.9302 39.279C21.0973 39.4447 20.2851 38.9008 20.1195 38.0667C19.954 37.2326 20.4972 36.4193 21.3301 36.2535L38.5472 32.8188C39.3802 32.653 40.1924 33.197 40.3579 34.0311C40.5235 34.8651 39.9803 35.6785 39.1474 35.8443Z" fill="#407BFF"/>
<path d="M35.7123 43.1587L23.2029 45.6557C22.37 45.8215 21.5578 45.2775 21.3923 44.4435C21.2267 43.6094 21.7699 42.7961 22.6028 42.6303L35.1121 40.1333C35.9451 39.9675 36.7573 40.5114 36.9228 41.3455C37.0884 42.1796 36.5452 42.9929 35.7123 43.1587Z" fill="#407BFF"/>
</g>
<path d="M78.9002 0.00275412L50.6628 3.87109L55.9851 42.8286L84.2224 38.9603L78.9002 0.00275412Z" fill="#407BFF"/>
<path opacity="0.7" d="M78.9002 0.00275412L50.6628 3.87109L55.9851 42.8286L84.2224 38.9603L78.9002 0.00275412Z" fill="white"/>
<g opacity="0.4">
<path d="M74.6109 9.03477L57.2179 11.4178C56.3746 11.5318 55.5986 10.9412 55.4796 10.0968C55.3658 9.25235 55.9556 8.47527 56.7989 8.35611L74.1919 5.97306C75.0351 5.85909 75.8111 6.44967 75.9301 7.2941C76.0439 8.13853 75.4542 8.91561 74.6109 9.03477Z" fill="#407BFF"/>
<path d="M75.4903 15.4791L58.0973 17.8622C57.254 17.9761 56.478 17.3855 56.359 16.5411C56.2452 15.6967 56.835 14.9196 57.6782 14.8004L75.0713 12.4174C75.9145 12.3034 76.6905 12.894 76.8095 13.7384C76.9233 14.5829 76.3336 15.3599 75.4903 15.4791Z" fill="#407BFF"/>
<path d="M63.7726 23.6441L58.9821 24.3021C58.1388 24.416 57.3628 23.8255 57.2438 22.981C57.13 22.1366 57.7197 21.3595 58.563 21.2404L63.3536 20.5824C64.1969 20.4685 64.9729 21.059 65.0919 21.9035C65.2057 22.7479 64.6159 23.525 63.7726 23.6441Z" fill="#407BFF"/>
<path d="M73.0641 22.3746L68.2736 23.0325C67.4303 23.1465 66.6543 22.5559 66.5353 21.7115C66.4215 20.8671 67.0113 20.09 67.8545 19.9708L72.6451 19.3129C73.4884 19.1989 74.2644 19.7895 74.3834 20.6339C74.4972 21.4784 73.9074 22.2555 73.0641 22.3746Z" fill="#407BFF"/>
<path d="M77.2545 28.358L59.8615 30.7411C59.0182 30.855 58.2422 30.2644 58.1232 29.42C58.0094 28.5756 58.5991 27.7985 59.4424 27.6794L76.8354 25.2963C77.6787 25.1823 78.4547 25.7729 78.5737 26.6173C78.6875 27.4618 78.0977 28.2389 77.2545 28.358Z" fill="#407BFF"/>
<path d="M73.3797 35.4557L60.7411 37.186C59.8978 37.2999 59.1218 36.7094 59.0028 35.8649C58.889 35.0205 59.4788 34.2434 60.322 34.1243L72.9607 32.394C73.804 32.28 74.58 32.8706 74.699 33.715C74.8128 34.5594 74.223 35.3365 73.3797 35.4557Z" fill="#407BFF"/>
</g>
<path d="M52.259 5.69148L23.8662 8.16895L27.2748 47.3409L55.6676 44.8634L52.259 5.69148Z" fill="#407BFF"/>
<path opacity="0.8" d="M52.259 5.69148L23.8662 8.16895L27.2748 47.3409L55.6676 44.8634L52.259 5.69148Z" fill="white"/>
<g opacity="0.4">
<path d="M47.5281 14.5058L30.0368 16.0341C29.1884 16.1066 28.4434 15.4798 28.3658 14.6301C28.2934 13.7805 28.9194 13.0345 29.7678 12.9568L47.2591 11.4286C48.1075 11.356 48.8525 11.9829 48.9301 12.8325C49.0025 13.6821 48.3766 14.4281 47.5281 14.5058Z" fill="#407BFF"/>
<path d="M48.0921 20.9814L30.6008 22.5097C29.7523 22.5822 29.0074 21.9553 28.9298 21.1057C28.8573 20.2561 29.4833 19.5101 30.3318 19.4324L47.8231 17.9041C48.6715 17.8316 49.4165 18.4585 49.4941 19.3081C49.5665 20.1577 48.9405 20.9037 48.0921 20.9814Z" fill="#407BFF"/>
<path d="M48.6558 27.4628L31.1645 28.9911C30.3161 29.0636 29.5711 28.4368 29.4935 27.5872C29.4211 26.7376 30.0471 25.9916 30.8955 25.9139L48.3868 24.3856C49.2352 24.3131 49.9802 24.9399 50.0578 25.7895C50.1302 26.6391 49.5043 27.3851 48.6558 27.4628Z" fill="#407BFF"/>
<path d="M49.2198 33.9384L31.7285 35.4667C30.88 35.5392 30.1351 34.9124 30.0575 34.0628C29.985 33.2131 30.611 32.4671 31.4595 32.3894L48.9508 30.8612C49.7992 30.7887 50.5442 31.4155 50.6218 32.2651C50.6942 33.1147 50.0682 33.8607 49.2198 33.9384Z" fill="#407BFF"/>
<path d="M45.0035 40.833L32.2924 41.9416C31.444 42.0141 30.699 41.3873 30.6214 40.5377C30.549 39.6881 31.175 38.9421 32.0234 38.8643L44.7345 37.7557C45.5829 37.6832 46.3279 38.31 46.4055 39.1596C46.4779 40.0092 45.8519 40.7552 45.0035 40.833Z" fill="#407BFF"/>
</g>
<path d="M86.8596 3.78493L58.3923 5.15918L60.2831 44.4339L88.7504 43.0597L86.8596 3.78493Z" fill="#407BFF"/>
<path opacity="0.8" d="M86.8596 3.78493L58.3923 5.15918L60.2831 44.4339L88.7504 43.0597L86.8596 3.78493Z" fill="white"/>
<g opacity="0.4">
<path d="M81.7969 12.4075L64.259 13.2571C63.4106 13.2986 62.6863 12.6406 62.6449 11.791C62.6035 10.9414 63.2606 10.2162 64.109 10.1747L81.6469 9.3251C82.4953 9.28365 83.2196 9.94158 83.261 10.7912C83.3024 11.6408 82.6453 12.3661 81.7969 12.4075Z" fill="#407BFF"/>
<path d="M82.1072 18.8987L64.5693 19.7483C63.7209 19.7898 62.9966 19.1319 62.9552 18.2823C62.9138 17.4326 63.5709 16.7074 64.4193 16.6659L81.9572 15.8163C82.8056 15.7749 83.5299 16.4328 83.5713 17.2824C83.6126 18.132 82.9556 18.8573 82.1072 18.8987Z" fill="#407BFF"/>
<path d="M69.717 26.0062L64.885 26.2393C64.0366 26.2807 63.3123 25.6228 63.2709 24.7732C63.2295 23.9236 63.8865 23.1983 64.735 23.1569L69.5669 22.9237C70.4154 22.8823 71.1397 23.5402 71.181 24.3898C71.2224 25.2394 70.5654 25.9647 69.717 26.0062Z" fill="#407BFF"/>
<path d="M79.0861 25.556L74.2541 25.7891C73.4057 25.8305 72.6814 25.1726 72.64 24.323C72.5986 23.4734 73.2557 22.7481 74.1041 22.7067L78.9361 22.4735C79.7845 22.4321 80.5088 23.09 80.5502 23.9396C80.5916 24.7892 79.9345 25.5145 79.0861 25.556Z" fill="#407BFF"/>
<path d="M82.7332 31.886L65.1953 32.7357C64.3469 32.7771 63.6226 32.1192 63.5812 31.2696C63.5398 30.4199 64.1968 29.6947 65.0453 29.6532L82.5831 28.8036C83.4316 28.7622 84.1559 29.4201 84.1972 30.2697C84.2386 31.1193 83.5816 31.8446 82.7332 31.886Z" fill="#407BFF"/>
<path d="M78.2531 38.6106L65.511 39.2271C64.6625 39.2686 63.9383 38.6106 63.8969 37.761C63.8555 36.9114 64.5125 36.1861 65.3609 36.1447L78.1031 35.5282C78.9515 35.4868 79.6758 36.1447 79.7172 36.9943C79.7585 37.8439 79.1015 38.5692 78.2531 38.6106Z" fill="#407BFF"/>
</g>
<path d="M44.4966 34.756L44.0413 33.0516C43.3998 30.6323 41.0976 29.1351 38.5006 29.4408L13.7769 32.3367C10.6935 32.6993 8.25165 35.4399 8.32408 38.4653L9.72607 97.4407C9.77781 99.5129 11.5316 100.995 13.6475 100.746L102.108 90.3848C104.224 90.1361 105.9 88.2556 105.848 86.1833L104.637 35.2016C104.586 33.1293 102.832 31.6477 100.716 31.8964L49.3492 37.911C47.0729 38.1752 45.0656 36.8697 44.5017 34.756H44.4966Z" fill="#407BFF"/>
<path opacity="0.3" d="M44.4966 34.756L44.0413 33.0516C43.3998 30.6323 41.0976 29.1351 38.5006 29.4408L13.7769 32.3367C10.6935 32.6993 8.25165 35.4399 8.32408 38.4653L9.72607 97.4407C9.77781 99.5129 11.5316 100.995 13.6475 100.746L102.108 90.3848C104.224 90.1361 105.9 88.2556 105.848 86.1833L104.637 35.2016C104.586 33.1293 102.832 31.6477 100.716 31.8964L49.3492 37.911C47.0729 38.1752 45.0656 36.8697 44.5017 34.756H44.4966Z" fill="black"/>
</g>
<path d="M23.1028 70H21.1341L24.7186 59.8182H26.9956L30.585 70H28.6163L25.8968 61.9062H25.8173L23.1028 70ZM23.1674 66.0078H28.5368V67.4893H23.1674V66.0078ZM31.9261 70V59.8182H35.7443C36.5265 59.8182 37.1828 59.9541 37.7131 60.2259C38.2467 60.4976 38.6494 60.8788 38.9212 61.3693C39.1963 61.8565 39.3338 62.425 39.3338 63.0746C39.3338 63.7275 39.1946 64.2943 38.9162 64.7749C38.6411 65.2521 38.2351 65.6217 37.6982 65.8835C37.1612 66.142 36.5017 66.2713 35.7195 66.2713H33V64.7401H35.4709C35.9283 64.7401 36.3028 64.6771 36.5945 64.5511C36.8861 64.4219 37.1016 64.2346 37.2408 63.9893C37.3833 63.7408 37.4545 63.4358 37.4545 63.0746C37.4545 62.7133 37.3833 62.4051 37.2408 62.1499C37.0982 61.8913 36.8812 61.6958 36.5895 61.5632C36.2978 61.4273 35.9216 61.3594 35.4609 61.3594H33.7706V70H31.9261ZM37.1861 65.3864L39.7067 70H37.6484L35.1726 65.3864H37.1861ZM49.7468 63.2536H47.8874C47.8344 62.9486 47.7366 62.6785 47.5941 62.4432C47.4516 62.2045 47.2743 62.0024 47.0621 61.8366C46.85 61.6709 46.6081 61.5466 46.3363 61.4638C46.0678 61.3776 45.7778 61.3345 45.4663 61.3345C44.9128 61.3345 44.4222 61.4737 43.9947 61.7521C43.5671 62.0272 43.2324 62.4316 42.9904 62.9652C42.7485 63.4955 42.6275 64.1435 42.6275 64.9091C42.6275 65.688 42.7485 66.3442 42.9904 66.8778C43.2357 67.4081 43.5704 67.8092 43.9947 68.081C44.4222 68.3494 44.9111 68.4837 45.4613 68.4837C45.7662 68.4837 46.0513 68.4439 46.3164 68.3643C46.5849 68.2815 46.8252 68.1605 47.0373 68.0014C47.2527 67.8423 47.4334 67.6468 47.5792 67.4148C47.7283 67.1828 47.8311 66.9176 47.8874 66.6193L49.7468 66.6293C49.6772 67.1132 49.5264 67.5672 49.2944 67.9915C49.0657 68.4157 48.7657 68.7902 48.3945 69.1151C48.0233 69.4366 47.5891 69.6884 47.092 69.8707C46.5948 70.0497 46.043 70.1392 45.4364 70.1392C44.5415 70.1392 43.7428 69.9321 43.0401 69.5178C42.3375 69.1035 41.784 68.5052 41.3796 67.723C40.9753 66.9408 40.7731 66.0028 40.7731 64.9091C40.7731 63.812 40.9769 62.8741 41.3846 62.0952C41.7923 61.313 42.3474 60.7147 43.0501 60.3004C43.7527 59.8861 44.5482 59.679 45.4364 59.679C46.0032 59.679 46.5302 59.7585 47.0174 59.9176C47.5046 60.0767 47.9388 60.3104 48.32 60.6186C48.7011 60.9235 49.0143 61.2981 49.2596 61.7422C49.5082 62.183 49.6706 62.6868 49.7468 63.2536ZM51.4359 70V59.8182H53.2804V64.1286H57.9984V59.8182H59.8478V70H57.9984V65.6747H53.2804V70H51.4359ZM63.6983 59.8182V70H61.8539V59.8182H63.6983ZM67.0579 59.8182L69.7077 67.8324H69.8121L72.457 59.8182H74.4854L70.896 70H68.619L65.0344 59.8182H67.0579ZM84.3777 64.9091C84.3777 66.0062 84.1722 66.9458 83.7612 67.728C83.3535 68.5069 82.7967 69.1035 82.0907 69.5178C81.3881 69.9321 80.591 70.1392 79.6994 70.1392C78.8078 70.1392 78.0091 69.9321 77.3031 69.5178C76.6004 69.1001 76.0436 68.5019 75.6326 67.723C75.225 66.9408 75.0211 66.0028 75.0211 64.9091C75.0211 63.812 75.225 62.8741 75.6326 62.0952C76.0436 61.313 76.6004 60.7147 77.3031 60.3004C78.0091 59.8861 78.8078 59.679 79.6994 59.679C80.591 59.679 81.3881 59.8861 82.0907 60.3004C82.7967 60.7147 83.3535 61.313 83.7612 62.0952C84.1722 62.8741 84.3777 63.812 84.3777 64.9091ZM82.5233 64.9091C82.5233 64.1368 82.4023 63.4856 82.1603 62.9553C81.9217 62.4216 81.5903 62.0189 81.166 61.7472C80.7418 61.4721 80.2529 61.3345 79.6994 61.3345C79.1459 61.3345 78.657 61.4721 78.2328 61.7472C77.8085 62.0189 77.4754 62.4216 77.2335 62.9553C76.9949 63.4856 76.8755 64.1368 76.8755 64.9091C76.8755 65.6813 76.9949 66.3343 77.2335 66.8679C77.4754 67.3982 77.8085 67.8009 78.2328 68.076C78.657 68.3478 79.1459 68.4837 79.6994 68.4837C80.2529 68.4837 80.7418 68.3478 81.166 68.076C81.5903 67.8009 81.9217 67.3982 82.1603 66.8679C82.4023 66.3343 82.5233 65.6813 82.5233 64.9091ZM91.6548 62.6172C91.6084 62.183 91.4129 61.8449 91.0682 61.603C90.7268 61.361 90.2827 61.2401 89.7358 61.2401C89.3513 61.2401 89.0215 61.2981 88.7464 61.4141C88.4714 61.5301 88.2609 61.6875 88.1151 61.8864C87.9692 62.0852 87.8946 62.3123 87.8913 62.5675C87.8913 62.7796 87.9394 62.9635 88.0355 63.1193C88.1349 63.2751 88.2692 63.4077 88.4382 63.517C88.6072 63.6231 88.7945 63.7126 89 63.7855C89.2055 63.8584 89.4126 63.9197 89.6214 63.9695L90.576 64.2081C90.9605 64.2976 91.33 64.4186 91.6847 64.571C92.0426 64.7235 92.3625 64.9157 92.6442 65.1477C92.9292 65.3797 93.1546 65.6598 93.3203 65.9879C93.486 66.3161 93.5689 66.7005 93.5689 67.1413C93.5689 67.7379 93.4164 68.2633 93.1115 68.7173C92.8066 69.1681 92.3658 69.5211 91.7891 69.7763C91.2157 70.0282 90.5213 70.1541 89.706 70.1541C88.9138 70.1541 88.2261 70.0315 87.6428 69.7862C87.0627 69.541 86.6087 69.183 86.2805 68.7124C85.9557 68.2417 85.7801 67.6683 85.7536 66.9922H87.5682C87.5947 67.3468 87.7041 67.6418 87.8963 67.8771C88.0885 68.1125 88.3388 68.2881 88.647 68.4041C88.9586 68.5201 89.3066 68.5781 89.6911 68.5781C90.0921 68.5781 90.4434 68.5185 90.745 68.3991C91.05 68.2765 91.2886 68.1075 91.4609 67.892C91.6333 67.6733 91.7211 67.4181 91.7244 67.1264C91.7211 66.8613 91.6432 66.6425 91.4908 66.4702C91.3383 66.2945 91.1245 66.1487 90.8494 66.0327C90.5777 65.9134 90.2595 65.8073 89.8949 65.7145L88.7365 65.4162C87.898 65.2008 87.2351 64.8743 86.7479 64.4368C86.264 63.996 86.022 63.411 86.022 62.6818C86.022 62.0819 86.1844 61.5566 86.5092 61.1058C86.8374 60.6551 87.2831 60.3054 87.8466 60.0568C88.41 59.8049 89.0481 59.679 89.7607 59.679C90.4832 59.679 91.1162 59.8049 91.6598 60.0568C92.2067 60.3054 92.6359 60.6518 92.9474 61.0959C93.259 61.5367 93.4197 62.0438 93.4297 62.6172H91.6548Z" fill="white"/>
<g clip-path="url(#clip1_2587_4530)">
<path d="M164.67 78.9743L169.341 28.2238L159.362 20.5801L128.9 17.7764L123.608 75.1928L164.67 78.9743Z" fill="#407BFF"/>
<path opacity="0.8" d="M164.67 78.9743L169.341 28.2238L159.362 20.5801L128.9 17.7764L123.608 75.1928L164.67 78.9743Z" fill="white"/>
<path d="M169.341 28.2238L159.362 20.5801L161.98 29.7266L169.341 28.2238Z" fill="#407BFF"/>
<path d="M127.179 84.0651C134.051 84.0651 139.622 78.4941 139.622 71.6219C139.622 64.7497 134.051 59.1787 127.179 59.1787C120.307 59.1787 114.736 64.7497 114.736 71.6219C114.736 78.4941 120.307 84.0651 127.179 84.0651Z" fill="#407BFF"/>
<path d="M133.326 79.4018C137.626 76.0047 138.358 69.7651 134.961 65.4652C131.564 61.1653 125.324 60.4334 121.024 63.8305C116.725 67.2276 115.993 73.4672 119.39 77.7671C122.787 82.067 129.026 82.7989 133.326 79.4018Z" fill="white"/>
<path d="M133.312 70.7493L128.933 70.2403L129.442 65.8609L126.307 65.4893L125.79 69.8686L121.418 69.3596L121.047 72.4946L125.426 73.0117L124.909 77.383L128.052 77.7547L128.561 73.3753L132.94 73.8925L133.312 70.7493Z" fill="#407BFF"/>
<path opacity="0.4" d="M161.891 38.7441C161.721 40.6106 160.065 41.9842 158.198 41.8145L135.978 39.7703C134.112 39.6006 132.738 37.9442 132.908 36.0777C133.078 34.2113 134.734 32.8377 136.601 33.0073L158.821 35.0516C160.687 35.2213 162.061 36.8777 161.891 38.7441Z" fill="#407BFF"/>
<path opacity="0.4" d="M154.32 47.9152C154.15 49.7817 152.494 51.1553 150.628 50.9856L135.098 49.5555C133.231 49.3858 131.858 47.7294 132.027 45.8629C132.197 43.9964 133.853 42.6228 135.72 42.7925L151.25 44.2227C153.116 44.3923 154.49 46.0487 154.32 47.9152Z" fill="#407BFF"/>
</g>
<defs>
<clipPath id="clip0_2587_4530">
<rect width="105.848" height="101" fill="white"/>
</clipPath>
<clipPath id="clip1_2587_4530">
<rect width="54.6046" height="66.2883" fill="white" transform="translate(114.736 17.7764)"/>
</clipPath>
</defs>
</svg>
